<?xml version="1.0" encoding="UTF-8" standalone="no"?>
<svg width="512" height="512" viewBox="0 0 512 512" xmlns="http://www.w3.org/2000/svg">
  <rect width="512" height="512" rx="128" fill="#3b82f6"/>
  <path d="M256 128c-70.7 0-128 57.3-128 128 0 70.7 57.3 128 128 128 70.7 0 128-57.3 128-128 0-70.7-57.3-128-128-128zm0 224c-52.9 0-96-43.1-96-96s43.1-96 96-96 96 43.1 96 96-43.1 96-96 96z" fill="white"/>
  <path d="M272 196.8V144h-32v52.8c-18.7 6.6-32 24.4-32 45.2 0 26.5 21.5 48 48 48s48-21.5 48-48c0-20.8-13.3-38.6-32-45.2zM256 272c-17.7 0-32-14.3-32-32s14.3-32 32-32 32 14.3 32 32-14.3 32-32 32z" fill="white"/>
</svg>